<svg width="17" height="20" viewBox="0 0 17 20" fill="none" xmlns="http://www.w3.org/2000/svg">
<path fill-rule="evenodd" clip-rule="evenodd" d="M3.84615 9.23077H13.0769C13.5018 9.23077 13.8462 8.88637 13.8462 8.46154V3.84615C13.8462 3.42132 13.5018 3.07692 13.0769 3.07692H3.84615C3.42132 3.07692 3.07692 3.42132 3.07692 3.84615V8.46154C3.07692 8.88637 3.42132 9.23077 3.84615 9.23077ZM4.61538 4.61538H12.3077V7.69231H4.61538V4.61538ZM15.3846 0H1.53846C0.688792 0 0 0.688793 0 1.53846V18.4615C0 19.3112 0.688792 20 1.53846 20H15.3846C16.2343 20 16.9231 19.3112 16.9231 18.4615V1.53846C16.9231 0.688793 16.2343 0 15.3846 0ZM15.3846 18.4615H1.53846V1.53846H15.3846V18.4615ZM5.76923 11.9231C5.76923 12.5603 5.25264 13.0769 4.61538 13.0769C3.97813 13.0769 3.46154 12.5603 3.46154 11.9231C3.46154 11.2858 3.97813 10.7692 4.61538 10.7692C5.25264 10.7692 5.76923 11.2858 5.76923 11.9231ZM9.61538 11.9231C9.61538 12.5603 9.09879 13.0769 8.46154 13.0769C7.82429 13.0769 7.30769 12.5603 7.30769 11.9231C7.30769 11.2858 7.82429 10.7692 8.46154 10.7692C9.09879 10.7692 9.61538 11.2858 9.61538 11.9231ZM13.4615 11.9231C13.4615 12.5603 12.9449 13.0769 12.3077 13.0769C11.6704 13.0769 11.1538 12.5603 11.1538 11.9231C11.1538 11.2858 11.6704 10.7692 12.3077 10.7692C12.9449 10.7692 13.4615 11.2858 13.4615 11.9231ZM5.76923 15.7692C5.76923 16.4065 5.25264 16.9231 4.61538 16.9231C3.97813 16.9231 3.46154 16.4065 3.46154 15.7692C3.46154 15.132 3.97813 14.6154 4.61538 14.6154C5.25264 14.6154 5.76923 15.132 5.76923 15.7692ZM9.61538 15.7692C9.61538 16.4065 9.09879 16.9231 8.46154 16.9231C7.82429 16.9231 7.30769 16.4065 7.30769 15.7692C7.30769 15.132 7.82429 14.6154 8.46154 14.6154C9.09879 14.6154 9.61538 15.132 9.61538 15.7692ZM13.4615 15.7692C13.4615 16.4065 12.9449 16.9231 12.3077 16.9231C11.6704 16.9231 11.1538 16.4065 11.1538 15.7692C11.1538 15.132 11.6704 14.6154 12.3077 14.6154C12.9449 14.6154 13.4615 15.132 13.4615 15.7692Z" fill="#121217"/>
</svg>
