<svg width="17" height="20" viewBox="0 0 17 20" fill="none" xmlns="http://www.w3.org/2000/svg">
<path fill-rule="evenodd" clip-rule="evenodd" d="M16.1538 0H3.07692C1.37759 0 0 1.37759 0 3.07692V19.2308C0 19.6556 0.344396 20 0.769231 20H14.6154C15.0402 20 15.3846 19.6556 15.3846 19.2308C15.3846 18.8059 15.0402 18.4615 14.6154 18.4615H1.53846C1.53846 17.6119 2.22725 16.9231 3.07692 16.9231H16.1538C16.5787 16.9231 16.9231 16.5787 16.9231 16.1538V0.769231C16.9231 0.344396 16.5787 0 16.1538 0ZM15.3846 15.3846H3.07692C2.53668 15.3839 2.00587 15.5262 1.53846 15.7971V3.07692C1.53846 2.22725 2.22725 1.53846 3.07692 1.53846H15.3846V15.3846Z" fill="#121217"/>
</svg>
