<svg width="17" height="20" viewBox="0 0 17 20" fill="none" xmlns="http://www.w3.org/2000/svg">
<path fill-rule="evenodd" clip-rule="evenodd" d="M16.6981 5.60962L11.3135 0.225C11.1691 0.0807779 10.9733 -0.000160413 10.7692 0H1.53846C0.688792 0 0 0.688793 0 1.53846V18.4615C0 19.3112 0.688792 20 1.53846 20H15.3846C16.2343 20 16.9231 19.3112 16.9231 18.4615V6.15385C16.9232 5.94977 16.8423 5.754 16.6981 5.60962ZM11.5385 2.62596L14.2971 5.38462H11.5385V2.62596ZM15.3846 18.4615H1.53846V1.53846H10V6.15385C10 6.57868 10.3444 6.92308 10.7692 6.92308H15.3846V18.4615ZM12.3077 10.7692C12.3077 11.1941 11.9633 11.5385 11.5385 11.5385H5.38462C4.95978 11.5385 4.61538 11.1941 4.61538 10.7692C4.61538 10.3444 4.95978 10 5.38462 10H11.5385C11.9633 10 12.3077 10.3444 12.3077 10.7692ZM12.3077 13.8462C12.3077 14.271 11.9633 14.6154 11.5385 14.6154H5.38462C4.95978 14.6154 4.61538 14.271 4.61538 13.8462C4.61538 13.4213 4.95978 13.0769 5.38462 13.0769H11.5385C11.9633 13.0769 12.3077 13.4213 12.3077 13.8462Z" fill="#121217"/>
</svg>
