<svg width="17" height="17" viewBox="0 0 17 17" fill="none" xmlns="http://www.w3.org/2000/svg">
<path fill-rule="evenodd" clip-rule="evenodd" d="M9.48083 8.49683C9.48083 9.03849 9.04172 9.47759 8.50006 9.47759C7.9584 9.47759 7.5193 9.03849 7.5193 8.49683C7.5193 7.95517 7.9584 7.51607 8.50006 7.51607C9.04172 7.51607 9.48083 7.95517 9.48083 8.49683ZM4.90394 7.51607C4.36228 7.51607 3.92318 7.95517 3.92318 8.49683C3.92318 9.03849 4.36228 9.47759 4.90394 9.47759C5.4456 9.47759 5.8847 9.03849 5.8847 8.49683C5.8847 7.95517 5.4456 7.51607 4.90394 7.51607ZM12.0962 7.51607C11.5545 7.51607 11.1154 7.95517 11.1154 8.49683C11.1154 9.03849 11.5545 9.47759 12.0962 9.47759C12.6379 9.47759 13.077 9.03849 13.077 8.49683C13.077 7.95517 12.6379 7.51607 12.0962 7.51607ZM17 8.49683C17.0007 11.4819 15.4354 14.2485 12.8765 15.7854C10.3175 17.3223 7.13988 17.4043 4.50509 16.0013L1.72218 16.9289C1.25225 17.0856 0.734097 16.9634 0.383811 16.6131C0.0335245 16.2628 -0.0887552 15.7446 0.0679638 15.2747L0.995601 12.4918C-0.665273 9.36916 -0.218916 5.54436 2.11636 2.88807C4.45164 0.231788 8.18776 -0.700811 11.4974 0.546403C14.8071 1.79362 16.9985 4.95997 17 8.49683ZM15.6923 8.49683C15.6915 5.47307 13.7994 2.77274 10.9576 1.73952C8.11588 0.706307 4.93133 1.56087 2.98862 3.87799C1.04591 6.19511 0.759957 9.4799 2.27304 12.0979C2.36677 12.2601 2.38641 12.4547 2.32699 12.6324L1.30781 15.6891L4.36452 14.6699C4.4311 14.6472 4.50095 14.6356 4.5713 14.6356C4.68613 14.6358 4.79888 14.6662 4.89822 14.7239C7.1236 16.0114 9.86703 16.0131 12.094 14.7284C14.3211 13.4437 15.6929 11.0679 15.6923 8.49683Z" fill="#121217"/>
</svg>
