<svg width="14" height="8" viewBox="0 0 14 8" fill="none" xmlns="http://www.w3.org/2000/svg">
<path fill-rule="evenodd" clip-rule="evenodd" d="M13.8134 7.45026C13.694 7.56975 13.5321 7.63689 13.3632 7.63689C13.1943 7.63689 13.0323 7.56975 12.913 7.45026L6.99994 1.53642L1.0869 7.45026C0.838258 7.6989 0.435136 7.6989 0.186498 7.45026C-0.0621405 7.20162 -0.0621405 6.7985 0.186498 6.54986L6.54974 0.186622C6.66909 0.0671351 6.83105 -3.39834e-06 6.99994 -3.39834e-06C7.16882 -3.39834e-06 7.33078 0.0671351 7.45014 0.186622L13.8134 6.54986C13.9329 6.66922 14 6.83118 14 7.00006C14 7.16895 13.9329 7.33091 13.8134 7.45026Z" fill="#121217"/>
</svg>
