<svg width="17" height="17" viewBox="0 0 17 17" fill="none" xmlns="http://www.w3.org/2000/svg">
<path fill-rule="evenodd" clip-rule="evenodd" d="M16.8086 15.8844L12.7208 11.7974C15.1821 8.8424 14.8838 4.47413 12.0437 1.8811C9.20362 -0.711928 4.82631 -0.612446 2.10693 2.10693C-0.612446 4.82631 -0.711928 9.20362 1.8811 12.0437C4.47413 14.8838 8.8424 15.1821 11.7974 12.7208L15.8844 16.8086C16.1396 17.0638 16.5534 17.0638 16.8086 16.8086C17.0638 16.5534 17.0638 16.1396 16.8086 15.8844ZM1.32432 7.20256C1.32432 3.9561 3.9561 1.32432 7.20256 1.32432C10.449 1.32432 13.0808 3.9561 13.0808 7.20256C13.0808 10.449 10.449 13.0808 7.20256 13.0808C3.95759 13.0772 1.32792 10.4475 1.32432 7.20256Z" fill="#637087"/>
</svg>
